<?xml version="1.0" encoding="utf-8"?>
<!-- Generator: Adobe Illustrator 19.2.1, SVG Export Plug-In . SVG Version: 6.00 Build 0)  -->
<svg version="1.1" id="Layer_1" xmlns="http://www.w3.org/2000/svg" xmlns:xlink="http://www.w3.org/1999/xlink" x="0px" y="0px"
	 viewBox="0 0 232 95.7" style="enable-background:new 0 0 232 95.7;" xml:space="preserve">
<style type="text/css">
	.st0{fill:#FFFFFF;}
</style>
<path class="st0" d="M5.9,4.9h15.8c10.6,0,18.2,7.6,18.2,19.3c0,7.2-4,15.2-12.1,17.4l14.3,33.7H30.9L18,43.1h-2.3v32.2H5.9V4.9z
	 M15.7,34.7c9.6,0,14-3,14-11.2c0-5.8-3.7-10.3-10.6-10.3h-3.4V34.7z"/>
<polygon class="st0" points="70.4,4.9 70.4,13.2 54.5,13.2 54.5,33.8 70.4,33.8 70.4,42.1 54.5,42.1 54.5,67 70.4,67 70.4,75.3 
	44.8,75.3 44.8,4.9 "/>
<path class="st0" d="M74.1,4.9h11.3c18.6,0,23.6,17.5,23.6,35.8c0,15-4.7,34.6-22.9,34.6H74.1V4.9z M83.9,67
	c11.7,0,14.9-11.9,14.9-27c0-17.4-5.2-26.8-14.9-26.8V67z"/>
<path class="st0" d="M128.4,12.7h-4v-0.9c0-1.8-0.8-3.3-2.8-3.3c-2.2,0-2.7,1.8-2.7,3.6c0,2.1,0.2,2.9,2.3,3.7l3,1.2
	c3.5,1.3,4.2,3.5,4.2,7.6c0,4.7-1.7,8.1-6.8,8.1c-3.9,0-6.8-2.8-6.8-6.6v-1.5h4v1.2c0,1.4,0.8,2.8,2.8,2.8c2.7,0,2.9-1.6,2.9-4.1
	c0-3-0.4-3.4-2.3-4.2l-2.8-1.2c-3.4-1.4-4.3-3.7-4.3-7.1c0-4.2,2.3-7.6,6.8-7.6c4,0,6.6,3.2,6.6,6.3V12.7z"/>
<polygon class="st0" points="147.9,32.4 144.2,32.4 141.2,14.4 141.1,14.4 138.1,32.4 134.4,32.4 130.2,4.7 134.4,4.7 136.4,22.3 
	136.5,22.3 139.6,4.7 142.7,4.7 145.9,22.7 146,22.7 147.9,4.7 152.1,4.7 "/>
<polygon class="st0" points="154.7,4.7 166.5,4.7 166.5,8.5 158.7,8.5 158.7,16.6 165.5,16.6 165.5,20.3 158.7,20.3 158.7,28.4 
	166.5,28.4 166.5,32.4 154.7,32.4 "/>
<path class="st0" d="M174.4,4.7h3.3l6.2,27.7h-4l-1.2-6h-5.4l-1.2,6h-4L174.4,4.7z M176.1,12.7L176.1,12.7l-2,10h4L176.1,12.7z"/>
<polygon class="st0" points="186.5,8.5 181.9,8.5 181.9,4.7 195,4.7 195,8.5 190.5,8.5 190.5,32.4 186.5,32.4 "/>
<polygon class="st0" points="196.9,4.7 208.8,4.7 208.8,8.5 200.9,8.5 200.9,16.6 207.8,16.6 207.8,20.3 200.9,20.3 200.9,28.4 
	208.8,28.4 208.8,32.4 196.9,32.4 "/>
<path class="st0" d="M211.5,4.7h6.4c4.7,0,7,2.8,7,8.1c0,3.2-0.9,5.5-3.4,6.9l4.3,12.6h-4.2l-3.7-11.8h-2.4v11.8h-4V4.7z
	 M215.5,17.1h2.3c2.8,0,3.2-1.6,3.2-4.3c0-2.8-0.5-4.3-3.4-4.3h-2.1V17.1z"/>
<path class="st0" d="M121.5,58.5h-3.6v16.6h-2.2V35.7h5.8c5,0,7.1,3.2,7.1,8.3v6.1C128.6,55.3,126.5,58.5,121.5,58.5 M126.3,44.1
	c0-4.3-1.6-6.4-5-6.4h-3.4v18.6h3.4c3.3,0,5-2,5-6.3V44.1z"/>
<path class="st0" d="M142.1,75.1V62.8c0-3.6-1.6-6-5-6h-3.3v18.4h-2.2V35.7h5.6c4.8,0,7.1,2.7,7.1,8v5c0,3.7-1.7,6-3.8,7
	c2.1,0.9,3.8,3,3.8,6.7v12.8H142.1z M142.1,43.8c0-4-1.7-6-5-6h-3.3v16.8h3.3c3.4,0,5-2.5,5-6.1V43.8z"/>
<path class="st0" d="M155.8,75.6c-4.5,0-7.1-3-7.1-8.5V43.7c0-5.6,2.5-8.5,7.1-8.5c4.5,0,7.1,3,7.1,8.5v23.4
	C162.9,72.6,160.3,75.6,155.8,75.6 M160.6,43.7c0-4.2-1.6-6.4-4.8-6.4c-3.2,0-4.8,2.1-4.8,6.4v23.4c0,4.2,1.6,6.4,4.8,6.4
	c3.2,0,4.8-2.1,4.8-6.4V43.7z"/>
<path class="st0" d="M172.7,75.6c-4.5,0-6.8-3-6.8-8.5v-2.2h2.2v2.2c0,4,1.3,6.4,4.5,6.4c3.2,0,4.5-2.4,4.5-6.4V35.7h2.2v31.4
	C179.4,72.5,177.2,75.6,172.7,75.6"/>
<polygon class="st0" points="183.9,75.1 183.9,35.7 194.1,35.7 194.1,37.8 186.1,37.8 186.1,53.6 193.2,53.6 193.2,55.7 186.1,55.7 
	186.1,72.9 194.1,72.9 194.1,75.1 "/>
<path class="st0" d="M203.9,75.6c-4.5,0-6.7-3.1-6.7-8.5V43.7c0-5.4,2.1-8.5,6.7-8.5c4.5,0,6.7,3,6.7,8.5v2.2h-2.2v-2.2
	c0-4-1.2-6.4-4.4-6.4c-3.2,0-4.4,2.4-4.4,6.4v23.4c0,4,1.2,6.4,4.4,6.4c3.2,0,4.4-2.4,4.4-6.4v-2.2h2.2v2.2
	C210.6,72.6,208.5,75.6,203.9,75.6"/>
<polygon class="st0" points="220.3,37.8 220.3,75.1 218.1,75.1 218.1,37.8 212.4,37.8 212.4,35.7 226.1,35.7 226.1,37.8 "/>
</svg>
